<svg id="Artwork" xmlns="http://www.w3.org/2000/svg" viewBox="0 0 1270 432"><title>OF_PMS_Master</title><path d="M173,249.83A48,48,0,1,1,173,182,48,48,0,0,1,173,249.83ZM364.91,182A47.82,47.82,0,0,0,331,167.94a48,48,0,0,1-48-48,48,48,0,1,0-48,48,48,48,0,0,1,48,48s0,0,0,0h0a48.06,48.06,0,0,1-48,48.1h0A48,48,0,1,0,283,312h0a48.06,48.06,0,0,1,48-48.1h0A48,48,0,0,0,364.91,182Z" fill="#fff"/><path d="M489.12,165.78c34.63,0,57.64,25.06,57.64,59s-23,58.78-57.64,58.78-57.63-24.83-57.63-58.78S454.5,165.78,489.12,165.78Zm0,96.14c20,0,33.27-15.72,33.27-37.36,0-21.42-13.22-36.91-33.27-36.91-20.27,0-33.25,15.49-33.25,36.91C455.87,246.2,468.85,261.92,489.12,261.92Z" fill="#fff"/><path d="M624,283.79c-16.86,0-31.89-7.06-39.18-18.67v66.75H561.56V169H583l1.14,15.72c6.61-11.17,20.5-18.91,39.19-18.91,32.35,0,54,21.86,54.45,57.86C678.42,261.24,655.41,283.79,624,283.79Zm29.62-59.22c0-22.33-13.21-36.91-33.71-36.91s-33.95,14.58-33.95,36.91,13.44,37.14,33.95,37.14S653.59,246.88,653.59,224.56Z" fill="#fff"/><path d="M800.28,234.36H713c1.83,19.82,16.18,28.48,32.35,28.48,14.81,0,24.83-7.3,30.3-18.45l20.28,8.2c-8.66,19.81-27.8,31.2-50.8,31.2C712.35,283.79,690,260.55,690,225c0-34.86,21.86-59.24,55.59-59.24,33,0,54.67,23.24,54.67,59Zm-87-17.31h62.42c-1.14-20.74-13.21-31-30.52-31C727.38,186.06,715.54,197,713.26,217Z" fill="#fff"/><path d="M922.16,212v68.8H898v-64c0-24.6-15.26-29.16-25.75-29.16-14.35,0-28.93,9.11-28.93,30.53v62.65H819.18V169h22.56l.9,13c6.38-9.79,19.37-16.18,34.63-16.18C904.39,165.78,922.16,181.28,922.16,212Z" fill="#fff"/><path d="M976.13,153v16h26.43v20H976.13v91.81H951.75V189H935.58V169h16.18V153c0-28.93,16.18-40.77,38.5-40.77a57.93,57.93,0,0,1,12.76,1.36V135C981.6,131.16,976.13,139.81,976.13,153Z" fill="#fff"/><path d="M1021.68,129.79a16.06,16.06,0,1,1,16.18,16A15.95,15.95,0,0,1,1021.68,129.79ZM1049.92,169V280.83h-24.15V169Z" fill="#fff"/><path d="M1178.87,212v68.8h-24.15v-64c0-24.6-15.26-29.16-25.75-29.16-14.35,0-28.93,9.11-28.93,30.53v62.65h-24.15V169h22.56l.9,13c6.38-9.79,19.37-16.18,34.63-16.18C1161.1,165.78,1178.87,181.28,1178.87,212Z" fill="#fff"/><path d="M489.12,165.78c34.63,0,57.64,25.06,57.64,59s-23,58.78-57.64,58.78-57.63-24.83-57.63-58.78S454.5,165.78,489.12,165.78Zm0,96.14c20,0,33.27-15.72,33.27-37.36,0-21.42-13.22-36.91-33.27-36.91-20.27,0-33.25,15.49-33.25,36.91C455.87,246.2,468.85,261.92,489.12,261.92Z" fill="#fff"/><path d="M624,283.79c-16.86,0-31.89-7.06-39.18-18.67v66.75H561.56V169H583l1.14,15.72c6.61-11.17,20.5-18.91,39.19-18.91,32.35,0,54,21.86,54.45,57.86C678.42,261.24,655.41,283.79,624,283.79Zm29.62-59.22c0-22.33-13.21-36.91-33.71-36.91s-33.95,14.58-33.95,36.91,13.44,37.14,33.95,37.14S653.59,246.88,653.59,224.56Z" fill="#fff"/><path d="M800.28,234.36H713c1.83,19.82,16.18,28.48,32.35,28.48,14.81,0,24.83-7.3,30.3-18.45l20.28,8.2c-8.66,19.81-27.8,31.2-50.8,31.2C712.35,283.79,690,260.55,690,225c0-34.86,21.86-59.24,55.59-59.24,33,0,54.67,23.24,54.67,59Zm-87-17.31h62.42c-1.14-20.74-13.21-31-30.52-31C727.38,186.06,715.54,197,713.26,217Z" fill="#fff"/><path d="M922.16,212v68.8H898v-64c0-24.6-15.26-29.16-25.75-29.16-14.35,0-28.93,9.11-28.93,30.53v62.65H819.18V169h22.56l.9,13c6.38-9.79,19.37-16.18,34.63-16.18C904.39,165.78,922.16,181.28,922.16,212Z" fill="#fff"/><path d="M976.13,153v16h26.43v20H976.13v91.81H951.75V189H935.58V169h16.18V153c0-28.93,16.18-40.77,38.5-40.77a57.93,57.93,0,0,1,12.76,1.36V135C981.6,131.16,976.13,139.81,976.13,153Z" fill="#fff"/><path d="M1021.68,129.79a16.06,16.06,0,1,1,16.18,16A15.95,15.95,0,0,1,1021.68,129.79ZM1049.92,169V280.83h-24.15V169Z" fill="#fff"/><path d="M1178.87,212v68.8h-24.15v-64c0-24.6-15.26-29.16-25.75-29.16-14.35,0-28.93,9.11-28.93,30.53v62.65h-24.15V169h22.56l.9,13c6.38-9.79,19.37-16.18,34.63-16.18C1161.1,165.78,1178.87,181.28,1178.87,212Z" fill="#fff"/><path d="M369.42,181a50,50,0,0,0-5.75-4.94l-.75-.52c-.43-.3-.85-.61-1.29-.9s-.95-.6-1.42-.89l-.66-.41c-.59-.35-1.19-.68-1.79-1l-.35-.19a49.6,49.6,0,0,0-23-5.68h0a49.71,49.71,0,0,1-49.67-49.76h0A49.62,49.62,0,1,0,235,166.29h0A49.71,49.71,0,0,1,284.71,216h0A49.71,49.71,0,0,1,235,265.71h0a49.62,49.62,0,0,1-49.62-49.62,49.62,49.62,0,1,0-49.62,49.62,49.62,49.62,0,0,1,49.62,49.62,49.71,49.71,0,0,0,99.43,0,49.62,49.62,0,0,1,49.62-49.62,49.56,49.56,0,0,0,25.19-6.86h0c.66-.39,1.31-.8,2-1.22l.14-.09c.6-.4,1.2-.82,1.78-1.24l.26-.18c.52-.38,1-.79,1.55-1.2l.44-.34c.48-.39.94-.8,1.41-1.21l.51-.44q.9-.81,1.77-1.68l.09-.08h0a49.84,49.84,0,0,0,5.8-7q.56-.81,1.08-1.64A49.61,49.61,0,0,0,369.42,181Z" fill="#fff"/></svg>